# 3ds Max Wavefront OBJ Exporter v0.97b - (c)2007 guruware
# File Created: 11.01.2021 16:19:29

#
# object Torus003
#

v  0.0000 -0.0000 2.2143
v  0.0834 -0.0000 2.1309
v  0.0000 -0.0000 2.0475
v  -0.0834 -0.0000 2.1309
v  0.0000 0.8474 2.0458
v  0.0834 0.8155 1.9687
v  0.0000 0.7836 1.8917
v  -0.0834 0.8155 1.9687
v  -0.0000 1.5658 1.5658
v  0.0834 1.5068 1.5068
v  -0.0000 1.4478 1.4478
v  -0.0834 1.5068 1.5068
v  -0.0000 2.0458 0.8474
v  0.0834 1.9687 0.8155
v  -0.0000 1.8917 0.7836
v  -0.0834 1.9687 0.8155
v  -0.0000 2.2143 -0.0000
v  0.0834 2.1309 -0.0000
v  -0.0000 2.0475 -0.0000
v  -0.0834 2.1309 -0.0000
v  -0.0000 2.0458 -0.8474
v  0.0834 1.9687 -0.8155
v  -0.0000 1.8917 -0.7836
v  -0.0834 1.9687 -0.8155
v  -0.0000 1.5658 -1.5658
v  0.0834 1.5068 -1.5068
v  -0.0000 1.4478 -1.4478
v  -0.0834 1.5068 -1.5068
v  -0.0000 0.8474 -2.0458
v  0.0834 0.8155 -1.9687
v  -0.0000 0.7836 -1.8917
v  -0.0834 0.8155 -1.9687
v  -0.0000 -0.0000 -2.2143
v  0.0834 -0.0000 -2.1309
v  -0.0000 -0.0000 -2.0475
v  -0.0834 -0.0000 -2.1309
v  -0.0000 -0.8474 -2.0458
v  0.0834 -0.8155 -1.9687
v  -0.0000 -0.7836 -1.8917
v  -0.0834 -0.8155 -1.9687
v  0.0000 -1.5658 -1.5658
v  0.0834 -1.5068 -1.5068
v  -0.0000 -1.4478 -1.4478
v  -0.0834 -1.5068 -1.5068
v  0.0000 -2.0458 -0.8474
v  0.0834 -1.9687 -0.8155
v  0.0000 -1.8917 -0.7836
v  -0.0834 -1.9687 -0.8155
v  0.0000 -2.2143 0.0000
v  0.0834 -2.1309 0.0000
v  0.0000 -2.0475 0.0000
v  -0.0834 -2.1309 0.0000
v  0.0000 -2.0458 0.8474
v  0.0834 -1.9687 0.8155
v  0.0000 -1.8917 0.7836
v  -0.0834 -1.9687 0.8155
v  0.0000 -1.5658 1.5658
v  0.0834 -1.5068 1.5068
v  0.0000 -1.4478 1.4478
v  -0.0834 -1.5068 1.5068
v  0.0000 -0.8474 2.0458
v  0.0834 -0.8155 1.9687
v  0.0000 -0.7836 1.8917
v  -0.0834 -0.8155 1.9687
# 64 vertices

vn 0.0000 -0.0000 1.0000
vn 0.9961 0.0336 0.0811
vn 0.0000 0.3827 0.9239
vn 0.9961 0.0000 0.0878
vn 0.0000 -0.3827 -0.9239
vn -0.0000 -0.0000 -1.0000
vn -0.9961 0.0336 0.0811
vn -0.9961 -0.0000 0.0878
vn 0.9961 0.0621 0.0621
vn -0.0000 0.7071 0.7071
vn -0.0000 -0.7071 -0.7071
vn -0.9961 0.0621 0.0621
vn 0.9961 0.0811 0.0336
vn 0.0000 0.9239 0.3827
vn 0.0000 -0.9239 -0.3827
vn -0.9961 0.0811 0.0336
vn 0.9961 0.0878 -0.0000
vn -0.0000 1.0000 0.0000
vn -0.0000 -1.0000 0.0000
vn -0.9961 0.0878 0.0000
vn 0.9961 0.0811 -0.0336
vn 0.0000 0.9239 -0.3827
vn -0.0000 -0.9239 0.3827
vn -0.9961 0.0811 -0.0336
vn 0.9961 0.0621 -0.0621
vn 0.0000 0.7071 -0.7071
vn 0.0000 -0.7071 0.7071
vn -0.9961 0.0621 -0.0621
vn 0.9961 0.0336 -0.0811
vn -0.0000 0.3827 -0.9239
vn -0.0000 -0.3827 0.9239
vn -0.9961 0.0336 -0.0811
vn 0.9961 0.0000 -0.0878
vn 0.0000 -0.0000 -1.0000
vn -0.0000 0.0000 1.0000
vn -0.9961 -0.0000 -0.0878
vn 0.9961 -0.0336 -0.0811
vn -0.0000 -0.3827 -0.9239
vn -0.0000 0.3827 0.9239
vn -0.9961 -0.0336 -0.0811
vn 0.9961 -0.0621 -0.0621
vn 0.0000 -0.7071 -0.7071
vn -0.9961 -0.0621 -0.0621
vn 0.9961 -0.0811 -0.0336
vn -0.0000 0.9239 0.3827
vn -0.9961 -0.0811 -0.0336
vn 0.9961 -0.0878 0.0000
vn -0.0000 1.0000 -0.0000
vn -0.9961 -0.0878 0.0000
vn 0.9961 -0.0811 0.0336
vn 0.0000 -0.9239 0.3827
vn -0.9961 -0.0811 0.0336
vn 0.9961 -0.0621 0.0621
vn -0.0000 0.7071 -0.7071
vn -0.9961 -0.0621 0.0621
vn 0.9961 -0.0336 0.0811
vn -0.9961 -0.0336 0.0811
# 57 vertex normals

vt 0.0000 0.0000 0.0000
vt 0.2500 0.0625 0.0000
vt 0.0000 0.0625 0.0000
vt 0.2500 0.0000 0.0000
vt 0.5000 0.0625 0.0000
vt 0.5000 0.0000 0.0000
vt 0.7500 0.0625 0.0000
vt 0.7500 0.0000 0.0000
vt 1.0000 0.0625 0.0000
vt 0.2500 0.1250 0.0000
vt 0.0000 0.1250 0.0000
vt 0.5000 0.1250 0.0000
vt 0.7500 0.1250 0.0000
vt 1.0000 0.1250 0.0000
vt 0.2500 0.1875 0.0000
vt 0.0000 0.1875 0.0000
vt 0.5000 0.1875 0.0000
vt 0.7500 0.1875 0.0000
vt 1.0000 0.1875 0.0000
vt 0.2500 0.2500 0.0000
vt 0.0000 0.2500 0.0000
vt 0.5000 0.2500 0.0000
vt 0.7500 0.2500 0.0000
vt 1.0000 0.2500 0.0000
vt 0.2500 0.3125 0.0000
vt 0.0000 0.3125 0.0000
vt 0.5000 0.3125 0.0000
vt 0.7500 0.3125 0.0000
vt 1.0000 0.3125 0.0000
vt 0.2500 0.3750 0.0000
vt 0.0000 0.3750 0.0000
vt 0.5000 0.3750 0.0000
vt 0.7500 0.3750 0.0000
vt 1.0000 0.3750 0.0000
vt 0.2500 0.4375 0.0000
vt 0.0000 0.4375 0.0000
vt 0.5000 0.4375 0.0000
vt 0.7500 0.4375 0.0000
vt 1.0000 0.4375 0.0000
vt 0.2500 0.5000 0.0000
vt 0.0000 0.5000 0.0000
vt 0.5000 0.5000 0.0000
vt 0.7500 0.5000 0.0000
vt 1.0000 0.5000 0.0000
vt 0.2500 0.5625 0.0000
vt 0.0000 0.5625 0.0000
vt 0.5000 0.5625 0.0000
vt 0.7500 0.5625 0.0000
vt 1.0000 0.5625 0.0000
vt 0.2500 0.6250 0.0000
vt 0.0000 0.6250 0.0000
vt 0.5000 0.6250 0.0000
vt 0.7500 0.6250 0.0000
vt 1.0000 0.6250 0.0000
vt 0.2500 0.6875 0.0000
vt 0.0000 0.6875 0.0000
vt 0.5000 0.6875 0.0000
vt 0.7500 0.6875 0.0000
vt 1.0000 0.6875 0.0000
vt 0.2500 0.7500 0.0000
vt 0.0000 0.7500 0.0000
vt 0.5000 0.7500 0.0000
vt 0.7500 0.7500 0.0000
vt 1.0000 0.7500 0.0000
vt 0.2500 0.8125 0.0000
vt 0.0000 0.8125 0.0000
vt 0.5000 0.8125 0.0000
vt 0.7500 0.8125 0.0000
vt 1.0000 0.8125 0.0000
vt 0.2500 0.8750 0.0000
vt 0.0000 0.8750 0.0000
vt 0.5000 0.8750 0.0000
vt 0.7500 0.8750 0.0000
vt 1.0000 0.8750 0.0000
vt 0.2500 0.9375 0.0000
vt 0.0000 0.9375 0.0000
vt 0.5000 0.9375 0.0000
vt 0.7500 0.9375 0.0000
vt 1.0000 0.9375 0.0000
vt 0.2500 1.0000 0.0000
vt 0.0000 1.0000 0.0000
vt 0.5000 1.0000 0.0000
vt 0.7500 1.0000 0.0000
vt 1.0000 1.0000 0.0000
vt 1.0000 0.0000 0.0000
# 85 texture coords

g Torus003
s 1
f 1/1/1 6/2/2 5/3/3 
f 2/4/4 7/5/5 6/2/2 
f 3/6/6 8/7/7 7/5/5 
f 4/8/8 5/9/3 8/7/7 
f 5/3/3 10/10/9 9/11/10 
f 6/2/2 11/12/11 10/10/9 
f 7/5/5 12/13/12 11/12/11 
f 8/7/7 9/14/10 12/13/12 
f 9/11/10 14/15/13 13/16/14 
f 10/10/9 15/17/15 14/15/13 
f 11/12/11 16/18/16 15/17/15 
f 12/13/12 13/19/14 16/18/16 
f 13/16/14 18/20/17 17/21/18 
f 14/15/13 19/22/19 18/20/17 
f 15/17/15 20/23/20 19/22/19 
f 16/18/16 17/24/18 20/23/20 
f 17/21/18 22/25/21 21/26/22 
f 18/20/17 23/27/23 22/25/21 
f 19/22/19 24/28/24 23/27/23 
f 20/23/20 21/29/22 24/28/24 
f 21/26/22 26/30/25 25/31/26 
f 22/25/21 27/32/27 26/30/25 
f 23/27/23 28/33/28 27/32/27 
f 24/28/24 25/34/26 28/33/28 
f 25/31/26 30/35/29 29/36/30 
f 26/30/25 31/37/31 30/35/29 
f 27/32/27 32/38/32 31/37/31 
f 28/33/28 29/39/30 32/38/32 
f 29/36/30 34/40/33 33/41/34 
f 30/35/29 35/42/35 34/40/33 
f 31/37/31 36/43/36 35/42/35 
f 32/38/32 33/44/34 36/43/36 
f 33/41/34 38/45/37 37/46/38 
f 34/40/33 39/47/39 38/45/37 
f 35/42/35 40/48/40 39/47/39 
f 36/43/36 37/49/38 40/48/40 
f 37/46/38 42/50/41 41/51/42 
f 38/45/37 43/52/10 42/50/41 
f 39/47/39 44/53/43 43/52/10 
f 40/48/40 41/54/42 44/53/43 
f 41/51/42 46/55/44 45/56/15 
f 42/50/41 47/57/45 46/55/44 
f 43/52/10 48/58/46 47/57/45 
f 44/53/43 45/59/15 48/58/46 
f 45/56/15 50/60/47 49/61/19 
f 46/55/44 51/62/48 50/60/47 
f 47/57/45 52/63/49 51/62/48 
f 48/58/46 49/64/19 52/63/49 
f 49/61/19 54/65/50 53/66/51 
f 50/60/47 55/67/22 54/65/50 
f 51/62/48 56/68/52 55/67/22 
f 52/63/49 53/69/51 56/68/52 
f 53/66/51 58/70/53 57/71/27 
f 54/65/50 59/72/54 58/70/53 
f 55/67/22 60/73/55 59/72/54 
f 56/68/52 57/74/27 60/73/55 
f 57/71/27 62/75/56 61/76/31 
f 58/70/53 63/77/30 62/75/56 
f 59/72/54 64/78/57 63/77/30 
f 60/73/55 61/79/31 64/78/57 
f 61/76/31 2/80/4 1/81/1 
f 62/75/56 3/82/6 2/80/4 
f 63/77/30 4/83/8 3/82/6 
f 64/78/57 1/84/1 4/83/8 
f 1/1/1 2/4/4 6/2/2 
f 2/4/4 3/6/6 7/5/5 
f 3/6/6 4/8/8 8/7/7 
f 4/8/8 1/85/1 5/9/3 
f 5/3/3 6/2/2 10/10/9 
f 6/2/2 7/5/5 11/12/11 
f 7/5/5 8/7/7 12/13/12 
f 8/7/7 5/9/3 9/14/10 
f 9/11/10 10/10/9 14/15/13 
f 10/10/9 11/12/11 15/17/15 
f 11/12/11 12/13/12 16/18/16 
f 12/13/12 9/14/10 13/19/14 
f 13/16/14 14/15/13 18/20/17 
f 14/15/13 15/17/15 19/22/19 
f 15/17/15 16/18/16 20/23/20 
f 16/18/16 13/19/14 17/24/18 
f 17/21/18 18/20/17 22/25/21 
f 18/20/17 19/22/19 23/27/23 
f 19/22/19 20/23/20 24/28/24 
f 20/23/20 17/24/18 21/29/22 
f 21/26/22 22/25/21 26/30/25 
f 22/25/21 23/27/23 27/32/27 
f 23/27/23 24/28/24 28/33/28 
f 24/28/24 21/29/22 25/34/26 
f 25/31/26 26/30/25 30/35/29 
f 26/30/25 27/32/27 31/37/31 
f 27/32/27 28/33/28 32/38/32 
f 28/33/28 25/34/26 29/39/30 
f 29/36/30 30/35/29 34/40/33 
f 30/35/29 31/37/31 35/42/35 
f 31/37/31 32/38/32 36/43/36 
f 32/38/32 29/39/30 33/44/34 
f 33/41/34 34/40/33 38/45/37 
f 34/40/33 35/42/35 39/47/39 
f 35/42/35 36/43/36 40/48/40 
f 36/43/36 33/44/34 37/49/38 
f 37/46/38 38/45/37 42/50/41 
f 38/45/37 39/47/39 43/52/10 
f 39/47/39 40/48/40 44/53/43 
f 40/48/40 37/49/38 41/54/42 
f 41/51/42 42/50/41 46/55/44 
f 42/50/41 43/52/10 47/57/45 
f 43/52/10 44/53/43 48/58/46 
f 44/53/43 41/54/42 45/59/15 
f 45/56/15 46/55/44 50/60/47 
f 46/55/44 47/57/45 51/62/48 
f 47/57/45 48/58/46 52/63/49 
f 48/58/46 45/59/15 49/64/19 
f 49/61/19 50/60/47 54/65/50 
f 50/60/47 51/62/48 55/67/22 
f 51/62/48 52/63/49 56/68/52 
f 52/63/49 49/64/19 53/69/51 
f 53/66/51 54/65/50 58/70/53 
f 54/65/50 55/67/22 59/72/54 
f 55/67/22 56/68/52 60/73/55 
f 56/68/52 53/69/51 57/74/27 
f 57/71/27 58/70/53 62/75/56 
f 58/70/53 59/72/54 63/77/30 
f 59/72/54 60/73/55 64/78/57 
f 60/73/55 57/74/27 61/79/31 
f 61/76/31 62/75/56 2/80/4 
f 62/75/56 63/77/30 3/82/6 
f 63/77/30 64/78/57 4/83/8 
f 64/78/57 61/79/31 1/84/1 
# 128 faces

