# 3ds Max Wavefront OBJ Exporter v0.97b - (c)2007 guruware
# File Created: 11.01.2021 14:18:32

#
# object Object001
#

v  0.0139 0.7428 0.6000
v  0.0450 0.7000 0.6000
v  0.0450 0.7000 0.0000
v  0.0139 0.7428 0.0000
v  -0.0364 0.7264 0.6000
v  -0.0364 0.7264 0.0000
v  -0.0364 0.6735 0.6000
v  -0.0364 0.6735 0.0000
v  0.0139 0.6572 0.6000
v  0.0139 0.6572 0.0000
v  0.0139 0.6000 0.6572
v  0.0450 0.6000 0.7000
v  0.0450 0.0000 0.7000
v  0.0139 0.0000 0.6572
v  -0.0364 0.6000 0.6735
v  -0.0364 -0.0000 0.6735
v  -0.0364 0.6000 0.7264
v  -0.0364 -0.0000 0.7264
v  0.0139 0.6000 0.7428
v  0.0139 0.0000 0.7428
# 20 vertices

vn 0.2715 0.9027 0.3338
vn 0.9834 0.1283 0.1283
vn 1.0000 0.0000 0.0000
vn 0.3089 0.9511 0.0000
vn -0.7347 0.6181 0.2796
vn -0.8091 0.5877 0.0000
vn -0.8759 -0.4504 -0.1729
vn -0.8091 -0.5877 0.0000
vn 0.3381 -0.8445 -0.4153
vn 0.3089 -0.9511 0.0000
vn 0.3381 -0.4153 -0.8445
vn 1.0000 -0.0000 -0.0000
vn 0.3089 -0.0000 -0.9511
vn -0.8759 -0.1729 -0.4504
vn -0.8091 -0.0000 -0.5877
vn -0.7347 0.2796 0.6181
vn -0.8091 0.0000 0.5877
vn 0.2715 0.3338 0.9027
vn 0.3089 0.0000 0.9511
# 19 vertex normals

vt 38.0000 -4.2553 0.8209
vt 38.0000 0.5000 4.2758
vt -62.0000 0.5000 4.2758
vt -62.0000 -4.2553 0.8209
vt 5.7693 38.0000 -2.4389
vt 0.1791 38.0000 -4.2553
vt 0.1791 -62.0000 -4.2553
vt 5.7693 -62.0000 -2.4389
vt -37.0000 3.4389 -4.7693
vt -37.0000 -2.4389 -4.7693
vt 63.0000 -2.4389 -4.7693
vt 63.0000 3.4389 -4.7693
vt 0.8209 38.0000 5.2553
vt -4.7693 38.0000 3.4389
vt -4.7693 -62.0000 3.4389
vt 0.8209 -62.0000 5.2553
vt 38.0000 5.2553 0.8209
vt -62.0000 5.2553 0.8209
# 18 texture coords

g Object001
s 1
f 1/1/1 2/2/2 3/3/3 
f 3/3/3 4/4/4 1/1/1 
f 5/5/5 1/6/1 4/7/4 
f 4/7/4 6/8/6 5/5/5 
f 7/9/7 5/10/5 6/11/6 
f 6/11/6 8/12/8 7/9/7 
f 9/13/9 7/14/7 8/15/8 
f 8/15/8 10/16/10 9/13/9 
f 2/2/2 9/17/9 10/18/10 
f 10/18/10 3/3/3 2/2/2 
f 11/1/11 12/2/2 13/3/12 
f 13/3/12 14/4/13 11/1/11 
f 15/5/14 11/6/11 14/7/13 
f 14/7/13 16/8/15 15/5/14 
f 17/9/16 15/10/14 16/11/15 
f 16/11/15 18/12/17 17/9/16 
f 19/13/18 17/14/16 18/15/17 
f 18/15/17 20/16/19 19/13/18 
f 12/2/2 19/17/18 20/18/19 
f 20/18/19 13/3/12 12/2/2 
f 12/12/2 11/11/11 2/2/2 
f 11/11/11 7/7/7 9/9/9 
f 19/1/18 12/12/2 1/1/1 
f 17/17/16 19/1/18 5/5/5 
f 15/15/14 5/5/5 7/7/7 
f 11/11/11 9/9/9 2/2/2 
f 11/11/11 15/15/14 7/7/7 
f 12/12/2 2/2/2 1/1/1 
f 19/1/18 1/1/1 5/5/5 
f 15/15/14 17/17/16 5/5/5 
# 30 faces

