# 3ds Max Wavefront OBJ Exporter v0.97b - (c)2007 guruware
# File Created: 03.01.2021 19:38:23

#
# object Cylinder001
#

v  0.0278 1.7991 -0.0856
v  0.0900 1.7991 0.0000
v  0.0900 0.0000 0.0000
v  0.0278 0.0000 -0.0856
v  -0.0728 1.7991 -0.0529
v  -0.0728 0.0000 -0.0529
v  -0.0728 1.7991 0.0529
v  -0.0728 0.0000 0.0529
v  0.0278 1.7991 0.0856
v  0.0278 0.0000 0.0856
v  0.0713 1.7991 -0.2193
v  0.2306 1.7991 0.0000
v  -0.1866 1.7991 -0.1356
v  -0.1866 1.7991 0.1356
v  0.0713 1.7991 0.2193
v  0.0000 2.2489 0.0000
# 16 vertices

vn 0.1546 -0.8659 -0.4758
vn 0.5003 -0.8659 0.0000
vn 0.8032 -0.5957 0.0000
vn 0.2482 -0.5957 -0.7639
vn -0.4048 -0.8658 -0.2941
vn -0.6498 -0.5957 -0.4721
vn -0.4048 -0.8658 0.2941
vn -0.6498 -0.5957 0.4721
vn 0.1546 -0.8659 0.4758
vn 0.2482 -0.5957 0.7639
vn 0.2811 -0.4160 -0.8648
vn 0.9094 -0.4159 0.0000
vn -0.7357 -0.4160 -0.5344
vn -0.7357 -0.4160 0.5344
vn 0.2811 -0.4160 0.8648
vn 0.0000 1.0000 0.0000
# 16 vertex normals

vt 38.0000 -4.2553 0.8209
vt 38.0000 0.5000 4.2758
vt -62.0000 0.5000 4.2758
vt -62.0000 -4.2553 0.8209
vt 5.7693 38.0000 -2.4389
vt 0.1791 38.0000 -4.2553
vt 0.1791 -62.0000 -4.2553
vt 5.7693 -62.0000 -2.4389
vt -37.0000 3.4389 -4.7693
vt -37.0000 -2.4389 -4.7693
vt 63.0000 -2.4389 -4.7693
vt 63.0000 3.4389 -4.7693
vt 0.8209 38.0000 5.2553
vt -4.7693 38.0000 3.4389
vt -4.7693 -62.0000 3.4389
vt 0.8209 -62.0000 5.2553
vt 38.0000 5.2553 0.8209
vt -62.0000 5.2553 0.8209
vt -4.7693 -2.4389 -62.0000
vt 0.8209 -4.2553 -62.0000
vt 4.2758 0.5000 -62.0000
vt 0.8209 5.2553 -62.0000
vt -4.7693 3.4389 -62.0000
vt 3.2373 -11.6922 38.0000
vt 12.0954 0.5000 38.0000
vt 4.2758 0.5000 38.0000
vt 0.8209 -4.2553 38.0000
vt -11.0954 -7.0352 38.0000
vt -4.7693 -2.4389 38.0000
vt -11.0954 8.0352 38.0000
vt -4.7693 3.4389 38.0000
vt 3.2373 12.6922 38.0000
vt 0.8209 5.2553 38.0000
vt 38.0000 0.5000 12.0954
vt 38.0000 -11.6922 3.2373
vt 63.0000 0.4992 -0.7243
vt -2.2373 38.0000 -11.6922
vt 12.0954 38.0000 -7.0352
vt 1.7243 63.0000 0.4992
vt -37.0000 -7.0352 -11.0954
vt -37.0000 8.0352 -11.0954
vt -62.0000 0.4992 -0.7243
vt -11.0954 38.0000 8.0352
vt 3.2373 38.0000 12.6922
vt -0.7243 63.0000 0.4992
vt 38.0000 12.6922 3.2373
# 46 texture coords

g Cylinder001
s 1
f 1/1/1 2/2/2 3/3/3 
f 3/3/3 4/4/4 1/1/1 
f 5/5/5 1/6/1 4/7/4 
f 4/7/4 6/8/6 5/5/5 
f 7/9/7 5/10/5 6/11/6 
f 6/11/6 8/12/8 7/9/7 
f 9/13/9 7/14/7 8/15/8 
f 8/15/8 10/16/10 9/13/9 
f 2/2/2 9/17/9 10/18/10 
f 10/18/10 3/3/3 2/2/2 
f 6/19/6 4/20/4 3/21/3 
f 3/21/3 10/22/10 8/23/8 
f 6/19/6 3/21/3 8/23/8 
f 11/24/11 12/25/12 2/26/2 
f 2/26/2 1/27/1 11/24/11 
f 13/28/13 11/24/11 1/27/1 
f 1/27/1 5/29/5 13/28/13 
f 14/30/14 13/28/13 5/29/5 
f 5/29/5 7/31/7 14/30/14 
f 15/32/15 14/30/14 7/31/7 
f 7/31/7 9/33/9 15/32/15 
f 12/25/12 15/32/15 9/33/9 
f 9/33/9 2/26/2 12/25/12 
f 12/34/12 11/35/11 16/36/16 
f 11/37/11 13/38/13 16/39/16 
f 13/40/13 14/41/14 16/42/16 
f 14/43/14 15/44/15 16/45/16 
f 15/46/15 12/34/12 16/36/16 
# 28 faces

